<svg xmlns="http://www.w3.org/2000/svg" width="1024" height="1024" viewBox="0 0 1024 1024">
  <g transform="translate(0.000000,1024.000000) scale(0.100000,-0.100000)"
fill="#1A29D7" stroke="none">
<path d="M1225 9770 c-427 -57 -752 -402 -795 -846 -12 -126 -13 -5523 -1
-5650 41 -423 320 -746 726 -840 77 -18 210 -19 3965 -19 3885 0 3885 0 3984
27 342 95 598 370 670 720 20 95 25 5734 5 5844 -63 356 -334 654 -679 746
-85 23 -85 23 -3950 24 -2126 1 -3892 -2 -3925 -6z m1935 -2189 c212 -68 383
-253 440 -477 27 -105 31 -1891 5 -2002 -136 -576 -854 -707 -1176 -214 -111
170 -110 163 -107 1252 3 925 3 925 27 995 121 359 475 554 811 446z m4224 14
c244 -52 458 -280 502 -536 24 -142 16 -1899 -10 -1984 -176 -587 -935 -669
-1201 -130 -79 159 -75 96 -75 1150 0 1059 -3 1002 77 1159 136 264 421 402
707 341z"/>
<path d="M3290 1843 c-233 -40 -447 -234 -522 -473 -37 -119 -34 -332 6 -454
68 -208 232 -371 446 -443 79 -26 3592 -34 3725 -8 607 118 734 1012 185 1304
-157 84 52 76 -1995 77 -1001 1 -1831 0 -1845 -3z"/>
</g>
</svg>
